{"title":"Revolution Z - Season 1 - Episode 1","uid":7780412,"size":678234668,"categoryP":"video","categoryS":"tv_shows","magnet":"?xt=urn:btih:5096620c730c92e2c6ad481a3957d53513e835d7&amp;dn=Revolution+Z+-+Season+1+-+Episode+1&amp;tr=udp%3A%2F%2Ftracker.openbittorrent.com%3A80&amp;tr=udp%3A%2F%2Fopen.demonii.com%3A1337&amp;tr=udp%3A%2F%2Ftracker.coppersurfer.tk%3A6969&amp;tr=udp%3A%2F%2Fexodus.desync.com%3A6969","seeders":0,"leechers":1,"uploader":null,"files":-1,"time":1351765954,"description":"HQ WEBRip\n\nFormat                                   : AVI\nFormat/Info                              : Audio Video Interleave\nFile size                                : 647 MiB\nDuration                                 : 49mn 37s\nOverall bit rate                         : 1 822 Kbps\nWriting application                      : Lavf52.84.0\nWriting library                          : VirtualDub build 32842/release\n\nVideo\nID                                       : 0\nFormat                                   : MPEG-4 Visual\nFormat profile                           : Advanced Simple@L5\nFormat settings, BVOP                    : 2\nFormat settings, QPel                    : No\nFormat settings, GMC                     : No warppoints\nFormat settings, Matrix                  : Default (H.263)\nMuxing mode                              : Packed bitstream\nCodec ID                                 : XVID\nCodec ID/Hint                            : XviD\nDuration                                 : 49mn 37s\nBit rate                                 : 1 683 Kbps\nWidth                                    : 720 pixels\nHeight                                   : 400 pixels\nDisplay aspect ratio                     : 16:9\nFrame rate                               : 25.000 fps\nColor space                              : YUV\nChroma subsampling                       : 4:2:0\nBit depth                                : 8 bits\nScan type                                : Progressive\nCompression mode                         : Lossy\nBits/(Pixel*Frame)                       : 0.234\nStream size                              : 598 MiB (92%)\nWriting library                          : XviD 1.1.2 (UTC 2006-11-01)\n\nAudio\nID                                       : 1\nFormat                                   : AC-3\nFormat/Info                              : Audio Coding 3\nMode extension                           : CM (complete main)\nFormat settings, Endianness              : Big\nCodec ID                                 : 2000\nDuration                                 : 49mn 37s\nBit rate mode                            : Constant\nBit rate                                 : 128 Kbps\nChannel(s)                               : 2 channels\nChannel positions                        : Front: L R\nSampling rate                            : 48.0 KHz\nBit depth                                : 16 bits\nCompression mode                         : Lossy\nStream size                              : 45.4 MiB (7%)\nAlignment                                : Aligned on interleaves\nInterleave, duration                     : 32 ms (0.80 video frame)\nInterleave, preload duration             : 512 ms\n\n","torrent":{"xt":"urn:btih:5096620c730c92e2c6ad481a3957d53513e835d7","amp;dn":"Revolution+Z+-+Season+1+-+Episode+1","amp;tr":["udp%3A%2F%2Ftracker.openbittorrent.com%3A80","udp%3A%2F%2Fopen.demonii.com%3A1337","udp%3A%2F%2Ftracker.coppersurfer.tk%3A6969","udp%3A%2F%2Fexodus.desync.com%3A6969"],"infoHash":"5096620c730c92e2c6ad481a3957d53513e835d7","infoHashBuffer":{"type":"Buffer","data":[80,150,98,12,115,12,146,226,198,173,72,26,57,87,213,53,19,232,53,215]},"announce":[],"urlList":[]}}